<svg width="149" height="106" viewBox="0 0 149 106" fill="none" xmlns="http://www.w3.org/2000/svg">
<g filter="url(#filter0_d_1_4726)">
<g clip-path="url(#clip0_1_4726)">
<path d="M4.5 10.5C4.5 6.08172 8.08172 2.5 12.5 2.5H136.5C140.918 2.5 144.5 6.08172 144.5 10.5V91.5C144.5 95.9183 140.918 99.5 136.5 99.5H12.5C8.08172 99.5 4.5 95.9183 4.5 91.5V10.5Z" fill="#FAF9F5" shape-rendering="crispEdges"/>
<circle cx="12.8877" cy="11" r="2.5" fill="#ED6C5E"/>
<circle cx="20.8877" cy="11" r="2.5" fill="#F5C14F"/>
<circle cx="28.8877" cy="11" r="2.5" fill="#5EC650"/>
<rect x="4.5" y="18.5" width="140" height="81" fill="white"/>
<rect x="17.5" y="34.5" width="114" height="32" rx="6" fill="#F9F9F7"/>
<rect x="17.5" y="70.5" width="114" height="32" rx="6" fill="#F9F9F7"/>
<g filter="url(#filter1_d_1_4726)">
<rect x="71.5" y="64.5" width="36" height="16" rx="5" fill="#D97757" shape-rendering="crispEdges"/>
<rect x="71" y="64" width="37" height="17" rx="5.5" stroke="white" stroke-linejoin="round" shape-rendering="crispEdges"/>
<path d="M80.26 71.484C80.212 71.2813 80.12 71.1053 79.984 70.956C79.848 70.8067 79.676 70.6933 79.468 70.616C79.26 70.536 79.0253 70.496 78.764 70.496C78.396 70.496 78.0653 70.588 77.772 70.772C77.4787 70.9533 77.2493 71.2053 77.084 71.528C76.9187 71.8507 76.836 72.2147 76.836 72.62C76.836 73.0253 76.9187 73.3893 77.084 73.712C77.2493 74.0347 77.4787 74.288 77.772 74.472C78.0653 74.6533 78.396 74.744 78.764 74.744C79.0253 74.744 79.26 74.7053 79.468 74.628C79.676 74.548 79.848 74.4333 79.984 74.284C80.12 74.1347 80.212 73.9587 80.26 73.756H81.268C81.204 74.1267 81.0573 74.4507 80.828 74.728C80.6013 75.0053 80.3107 75.22 79.956 75.372C79.6013 75.5213 79.204 75.596 78.764 75.596C78.2307 75.596 77.7453 75.4653 77.308 75.204C76.8707 74.9427 76.5267 74.5853 76.276 74.132C76.0253 73.6787 75.9 73.1747 75.9 72.62C75.9 72.0653 76.0253 71.5613 76.276 71.108C76.5267 70.6547 76.8707 70.2973 77.308 70.036C77.7453 69.7747 78.2307 69.644 78.764 69.644C79.204 69.644 79.6013 69.72 79.956 69.872C80.3107 70.0213 80.6013 70.2347 80.828 70.512C81.0573 70.7893 81.204 71.1133 81.268 71.484H80.26ZM83.0772 69.5V75.5H82.2252V69.5H83.0772ZM84.1915 72.452C84.2075 72.1747 84.2835 71.9333 84.4195 71.728C84.5582 71.5227 84.7448 71.364 84.9795 71.252C85.2142 71.14 85.4848 71.084 85.7915 71.084C86.1275 71.084 86.4182 71.1493 86.6635 71.28C86.9115 71.408 87.1008 71.592 87.2315 71.832C87.3648 72.072 87.4315 72.3573 87.4315 72.688V74.52C87.4315 74.6053 87.4502 74.6707 87.4875 74.716C87.5275 74.7587 87.5875 74.78 87.6675 74.78H87.9235V75.5H87.4995C87.3422 75.5 87.2022 75.4667 87.0795 75.4C86.9568 75.3333 86.8608 75.24 86.7915 75.12C86.7222 75 86.6875 74.8627 86.6875 74.708V73.1H86.5715V72.612C86.5715 72.356 86.5008 72.16 86.3595 72.024C86.2208 71.8853 86.0235 71.816 85.7675 71.816C85.5408 71.816 85.3582 71.8707 85.2195 71.98C85.0835 72.0893 85.0022 72.2467 84.9755 72.452H84.1915ZM83.9995 74.264C83.9995 73.84 84.1595 73.508 84.4795 73.268C84.8022 73.028 85.2488 72.8827 85.8195 72.832L87.0035 72.728V73.456L85.8515 73.556C85.5235 73.5853 85.2808 73.6533 85.1235 73.76C84.9688 73.8667 84.8915 74.028 84.8915 74.244C84.8915 74.3747 84.9168 74.4867 84.9675 74.58C85.0208 74.6733 85.0968 74.744 85.1955 74.792C85.2968 74.84 85.4155 74.864 85.5515 74.864C85.7515 74.864 85.9288 74.812 86.0835 74.708C86.2382 74.6013 86.3582 74.4547 86.4435 74.268C86.5288 74.0787 86.5715 73.8627 86.5715 73.62V73.1H86.8435V73.984C86.8435 74.2907 86.7795 74.5667 86.6515 74.812C86.5235 75.0573 86.3462 75.2493 86.1195 75.388C85.8928 75.5267 85.6368 75.596 85.3515 75.596C85.0902 75.596 84.8568 75.54 84.6515 75.428C84.4488 75.316 84.2888 75.16 84.1715 74.96C84.0568 74.7573 83.9995 74.5253 83.9995 74.264ZM89.5412 73.884C89.5412 74.0787 89.5799 74.2493 89.6572 74.396C89.7372 74.54 89.8492 74.652 89.9932 74.732C90.1372 74.8093 90.3052 74.848 90.4972 74.848C90.6892 74.848 90.8572 74.8093 91.0012 74.732C91.1452 74.652 91.2559 74.54 91.3332 74.396C91.4132 74.2493 91.4532 74.0787 91.4532 73.884V71.18H92.3052V73.884C92.3052 74.22 92.2292 74.5187 92.0772 74.78C91.9279 75.0387 91.7159 75.24 91.4412 75.384C91.1665 75.5253 90.8505 75.596 90.4932 75.596C90.1359 75.596 89.8199 75.524 89.5452 75.38C89.2732 75.236 89.0612 75.0347 88.9092 74.776C88.7572 74.5173 88.6812 74.22 88.6812 73.884V71.18H89.5412V73.884ZM96.431 72.72V69.5H97.291V75.5H96.563V72.72H96.431ZM96.803 73.34C96.803 73.772 96.7257 74.16 96.571 74.504C96.419 74.8453 96.2083 75.1133 95.939 75.308C95.6723 75.5 95.371 75.596 95.035 75.596C94.6883 75.596 94.375 75.4987 94.095 75.304C93.8177 75.1093 93.599 74.84 93.439 74.496C93.2817 74.152 93.203 73.7667 93.203 73.34C93.203 72.9133 93.2817 72.528 93.439 72.184C93.599 71.84 93.8177 71.5707 94.095 71.376C94.375 71.1813 94.6883 71.084 95.035 71.084C95.371 71.084 95.6723 71.1813 95.939 71.376C96.2083 71.568 96.419 71.836 96.571 72.18C96.7257 72.5213 96.803 72.908 96.803 73.34ZM96.431 73.34C96.431 73.0413 96.3817 72.7787 96.283 72.552C96.187 72.3253 96.0497 72.1507 95.871 72.028C95.695 71.9027 95.491 71.84 95.259 71.84C95.0243 71.84 94.819 71.9027 94.643 72.028C94.467 72.1507 94.3297 72.3253 94.231 72.552C94.135 72.7787 94.087 73.0413 94.087 73.34C94.087 73.6387 94.135 73.9013 94.231 74.128C94.3297 74.3547 94.467 74.5307 94.643 74.656C94.819 74.7787 95.0243 74.84 95.259 74.84C95.491 74.84 95.695 74.7787 95.871 74.656C96.0497 74.5307 96.187 74.3547 96.283 74.128C96.3817 73.9013 96.431 73.6387 96.431 73.34ZM102.211 74.216C102.157 74.4987 102.044 74.744 101.871 74.952C101.697 75.16 101.476 75.32 101.207 75.432C100.94 75.5413 100.639 75.596 100.303 75.596C99.8948 75.596 99.5321 75.5 99.2148 75.308C98.8975 75.1133 98.6508 74.8453 98.4748 74.504C98.2988 74.16 98.2108 73.772 98.2108 73.34C98.2108 72.9133 98.2975 72.528 98.4708 72.184C98.6441 71.84 98.8841 71.5707 99.1908 71.376C99.4975 71.1813 99.8441 71.084 100.231 71.084C100.62 71.084 100.965 71.1773 101.267 71.364C101.568 71.548 101.801 71.8067 101.967 72.14C102.135 72.4707 102.219 72.8493 102.219 73.276V73.556H98.7308V72.828H101.495L101.315 73.048C101.315 72.7947 101.271 72.576 101.183 72.392C101.095 72.2053 100.969 72.0627 100.807 71.964C100.644 71.8653 100.452 71.816 100.231 71.816C100.007 71.816 99.8081 71.8747 99.6348 71.992C99.4641 72.1067 99.3308 72.272 99.2348 72.488C99.1415 72.704 99.0948 72.956 99.0948 73.244V73.432C99.0948 73.7253 99.1441 73.98 99.2428 74.196C99.3441 74.412 99.4855 74.5773 99.6668 74.692C99.8508 74.8067 100.063 74.864 100.303 74.864C100.58 74.864 100.805 74.8093 100.979 74.7C101.152 74.588 101.271 74.4267 101.335 74.216H102.211Z" fill="white"/>
</g>
<g filter="url(#filter2_d_1_4726)">
<path d="M64.5382 63.3655L62.0948 56.8494C61.7614 55.9601 61.5946 55.5154 61.6927 55.2317C61.7778 54.9853 61.9734 54.7929 62.2212 54.7119C62.5065 54.6185 62.9483 54.7926 63.832 55.1407L70.3947 57.726C71.7057 58.2425 72.3612 58.5007 72.4998 58.8127C72.6194 59.0819 72.5879 59.3942 72.4171 59.6342C72.2192 59.9123 71.5253 60.0347 70.1377 60.2796L68.5602 60.5579L68.5602 60.558C68.2518 60.6124 68.0976 60.6396 67.9715 60.7118C67.86 60.7756 67.7648 60.8644 67.6933 60.9711C67.6124 61.0919 67.5744 61.2438 67.4984 61.5476L67.0801 63.2208C66.7666 64.475 66.6098 65.1021 66.328 65.2805C66.0845 65.4347 65.7787 65.4521 65.5192 65.3266C65.219 65.1813 64.9921 64.576 64.5382 63.3655Z" fill="#D97757"/>
<path d="M62.0918 54.316C62.3628 54.2274 62.6514 54.2821 62.9199 54.361C63.1986 54.4429 63.5506 54.5817 63.9844 54.7526L70.5479 57.3385C71.1961 57.5939 71.7061 57.7944 72.0693 57.9713C72.2518 58.0602 72.4147 58.1514 72.5469 58.2506C72.6773 58.3485 72.806 58.4747 72.8809 58.6432C73.0602 59.0469 73.0129 59.5157 72.7568 59.8756C72.6499 60.0258 72.4988 60.124 72.3516 60.194C72.2024 60.2648 72.0245 60.3219 71.8281 60.3727C71.4368 60.4737 70.8963 60.5689 70.21 60.6901L68.6328 60.9684C68.2931 61.0283 68.2267 61.0464 68.1787 61.0739C68.123 61.1058 68.0748 61.1494 68.0391 61.2028C68.0083 61.2487 67.986 61.3144 67.9023 61.649L67.4844 63.3219C67.3295 63.9414 67.2073 64.4319 67.0869 64.7877C67.0263 64.9668 66.9603 65.1302 66.8818 65.2672C66.8038 65.4035 66.6993 65.5384 66.5508 65.6324C66.1856 65.8636 65.727 65.89 65.3379 65.7018C65.1795 65.6252 65.0608 65.5023 64.9678 65.3756C64.8743 65.2484 64.7895 65.0945 64.709 64.9235C64.549 64.5836 64.3727 64.1093 64.1484 63.5114L61.7051 56.9957C61.5413 56.5589 61.4074 56.2046 61.3301 55.9244C61.2556 55.6546 61.2057 55.3649 61.2988 55.0953C61.4266 54.7258 61.7202 54.4376 62.0918 54.316Z" stroke="white" stroke-width="0.833333" stroke-linejoin="round"/>
</g>
<circle cx="33.5" cy="50.5" r="10" fill="#F0EFEC"/>
<g opacity="0.4">
<g filter="url(#filter3_fn_1_4726)">
<path d="M69.8107 183.174C-49.5192 181.481 -44.1486 53.1637 69.8107 53.1637C191.358 53.1637 189.27 184.868 69.8107 183.174Z" fill="url(#paint0_linear_1_4726)"/>
</g>
<mask id="mask0_1_4726" style="mask-type:alpha" maskUnits="userSpaceOnUse" x="-3" y="14" width="149" height="159">
<rect x="-2.56519" y="14.3872" width="147.636" height="158.486" fill="url(#paint1_radial_1_4726)"/>
</mask>
<g mask="url(#mask0_1_4726)">
</g>
</g>
</g>
<path d="M136.5 2.25C141.056 2.25 144.75 5.94365 144.75 10.5V91.5C144.75 96.0563 141.056 99.75 136.5 99.75H12.5C7.94365 99.75 4.25 96.0564 4.25 91.5V10.5C4.25 5.94365 7.94365 2.25 12.5 2.25H136.5Z" stroke="#1E1E1D" stroke-opacity="0.3" stroke-width="0.5" shape-rendering="crispEdges"/>
</g>
<defs>
<filter id="filter0_d_1_4726" x="0" y="0" width="149" height="106" filterUnits="userSpaceOnUse" color-interpolation-filters="sRGB">
<feFlood flood-opacity="0" result="BackgroundImageFix"/>
<feColorMatrix in="SourceAlpha" type="matrix" values="0 0 0 0 0 0 0 0 0 0 0 0 0 0 0 0 0 0 127 0" result="hardAlpha"/>
<feOffset dy="2"/>
<feGaussianBlur stdDeviation="2"/>
<feComposite in2="hardAlpha" operator="out"/>
<feColorMatrix type="matrix" values="0 0 0 0 0 0 0 0 0 0 0 0 0 0 0 0 0 0 0.08 0"/>
<feBlend mode="normal" in2="BackgroundImageFix" result="effect1_dropShadow_1_4726"/>
<feBlend mode="normal" in="SourceGraphic" in2="effect1_dropShadow_1_4726" result="shape"/>
</filter>
<filter id="filter1_d_1_4726" x="64.5" y="57.5" width="50" height="30" filterUnits="userSpaceOnUse" color-interpolation-filters="sRGB">
<feFlood flood-opacity="0" result="BackgroundImageFix"/>
<feColorMatrix in="SourceAlpha" type="matrix" values="0 0 0 0 0 0 0 0 0 0 0 0 0 0 0 0 0 0 127 0" result="hardAlpha"/>
<feOffset/>
<feGaussianBlur stdDeviation="3"/>
<feComposite in2="hardAlpha" operator="out"/>
<feColorMatrix type="matrix" values="0 0 0 0 0 0 0 0 0 0 0 0 0 0 0 0 0 0 0.15 0"/>
<feBlend mode="normal" in2="BackgroundImageFix" result="effect1_dropShadow_1_4726"/>
<feBlend mode="normal" in="SourceGraphic" in2="effect1_dropShadow_1_4726" result="shape"/>
</filter>
<filter id="filter2_d_1_4726" x="55.8315" y="48.8538" width="22.5732" height="22.3894" filterUnits="userSpaceOnUse" color-interpolation-filters="sRGB">
<feFlood flood-opacity="0" result="BackgroundImageFix"/>
<feColorMatrix in="SourceAlpha" type="matrix" values="0 0 0 0 0 0 0 0 0 0 0 0 0 0 0 0 0 0 127 0" result="hardAlpha"/>
<feOffset/>
<feGaussianBlur stdDeviation="2.5"/>
<feComposite in2="hardAlpha" operator="out"/>
<feColorMatrix type="matrix" values="0 0 0 0 0 0 0 0 0 0 0 0 0 0 0 0 0 0 0.15 0"/>
<feBlend mode="normal" in2="BackgroundImageFix" result="effect1_dropShadow_1_4726"/>
<feBlend mode="normal" in="SourceGraphic" in2="effect1_dropShadow_1_4726" result="shape"/>
</filter>
<filter id="filter3_fn_1_4726" x="-35.4718" y="35.3763" width="213.449" height="165.601" filterUnits="userSpaceOnUse" color-interpolation-filters="sRGB">
<feFlood flood-opacity="0" result="BackgroundImageFix"/>
<feBlend mode="normal" in="SourceGraphic" in2="BackgroundImageFix" result="shape"/>
<feGaussianBlur stdDeviation="8.89371" result="effect1_foregroundBlur_1_4726"/>
<feTurbulence type="fractalNoise" baseFrequency="11.243899345397949 11.243899345397949" stitchTiles="stitch" numOctaves="3" result="noise" seed="8901" />
<feColorMatrix in="noise" type="luminanceToAlpha" result="alphaNoise" />
<feComponentTransfer in="alphaNoise" result="coloredNoise1">
<feFuncA type="discrete" tableValues="1 1 1 1 1 1 1 1 1 1 1 1 1 1 1 1 1 1 1 1 1 1 1 1 1 1 1 1 1 1 1 1 1 1 1 1 1 1 1 1 1 1 1 1 1 1 1 1 1 1 1 0 0 0 0 0 0 0 0 0 0 0 0 0 0 0 0 0 0 0 0 0 0 0 0 0 0 0 0 0 0 0 0 0 0 0 0 0 0 0 0 0 0 0 0 0 0 0 0 0 "/>
</feComponentTransfer>
<feComposite operator="in" in2="effect1_foregroundBlur_1_4726" in="coloredNoise1" result="noise1Clipped" />
<feComponentTransfer in="alphaNoise" result="coloredNoise2">
<feFuncA type="discrete" tableValues="0 0 0 0 0 0 0 0 0 0 0 0 0 0 0 0 0 0 0 0 0 0 0 0 0 0 0 0 0 0 0 0 0 0 0 0 0 0 0 0 0 0 0 0 0 0 0 0 0 1 1 1 1 1 1 1 1 1 1 1 1 1 1 1 1 1 1 1 1 1 1 1 1 1 1 1 1 1 1 1 1 1 1 1 1 1 1 1 1 1 1 1 1 1 1 1 1 1 1 1 "/>
</feComponentTransfer>
<feComposite operator="in" in2="effect1_foregroundBlur_1_4726" in="coloredNoise2" result="noise2Clipped" />
<feFlood flood-color="rgba(0, 0, 0, 0.15)" result="color1Flood" />
<feComposite operator="in" in2="noise1Clipped" in="color1Flood" result="color1" />
<feFlood flood-color="#FFFFFF" result="color2Flood" />
<feComposite operator="in" in2="noise2Clipped" in="color2Flood" result="color2" />
<feMerge result="effect2_noise_1_4726">
<feMergeNode in="effect1_foregroundBlur_1_4726" />
<feMergeNode in="color1" />
<feMergeNode in="color2" />
</feMerge>
</filter>
<linearGradient id="paint0_linear_1_4726" x1="70.3711" y1="50.8553" x2="70.3711" y2="147.992" gradientUnits="userSpaceOnUse">
<stop stop-color="#F58457" stop-opacity="0"/>
<stop offset="1" stop-color="#F58457" stop-opacity="0.5"/>
</linearGradient>
<radialGradient id="paint1_radial_1_4726" cx="0" cy="0" r="1" gradientUnits="userSpaceOnUse" gradientTransform="translate(71.2526 85.2397) rotate(90) scale(74.7983 94.3508)">
<stop stop-opacity="0.65"/>
<stop offset="1" stop-opacity="0"/>
</radialGradient>
<clipPath id="clip0_1_4726">
<path d="M4.5 10.5C4.5 6.08172 8.08172 2.5 12.5 2.5H136.5C140.918 2.5 144.5 6.08172 144.5 10.5V91.5C144.5 95.9183 140.918 99.5 136.5 99.5H12.5C8.08172 99.5 4.5 95.9183 4.5 91.5V10.5Z" fill="white"/>
</clipPath>
</defs>
</svg>
