<svg width="149" height="106" viewBox="0 0 149 106" fill="none" xmlns="http://www.w3.org/2000/svg">
<g filter="url(#filter0_d_1_4473)">
<g clip-path="url(#clip0_1_4473)">
<rect x="4.5" y="2.5" width="140" height="97" rx="8" fill="#FAF9F5" shape-rendering="crispEdges"/>
<circle cx="12.8877" cy="11" r="2.5" fill="#ED6C5E"/>
<circle cx="20.8877" cy="11" r="2.5" fill="#F5C14F"/>
<circle cx="28.8877" cy="11" r="2.5" fill="#5EC650"/>
<g filter="url(#filter1_d_1_4473)">
<path d="M17.5 42.5C17.5 38.0817 21.0817 34.5 25.5 34.5H123.5C127.918 34.5 131.5 38.0817 131.5 42.5V108.5C131.5 112.918 127.918 116.5 123.5 116.5H25.5C21.0817 116.5 17.5 112.918 17.5 108.5V42.5Z" fill="white" shape-rendering="crispEdges"/>
<path d="M123.5 34.25C128.056 34.25 131.75 37.9437 131.75 42.5V108.5C131.75 113.056 128.056 116.75 123.5 116.75H25.5C20.9437 116.75 17.25 113.056 17.25 108.5V42.5C17.25 37.9437 20.9437 34.25 25.5 34.25H123.5Z" stroke="#1E1E1D" stroke-opacity="0.3" stroke-width="0.5" shape-rendering="crispEdges"/>
</g>
<path d="M57.5 58.9213C58.7127 58.9213 59.7809 57.9594 60.4055 56.5C61.0302 57.9594 62.0983 58.9213 63.311 58.9213C64.5238 58.9213 65.5919 57.9594 66.2165 56.5C66.8412 57.9594 67.9093 58.9213 69.122 58.9213C70.3348 58.9213 71.4029 57.9594 72.0276 56.5" stroke="#C1BEB2" stroke-width="1.61417" stroke-linecap="round" stroke-linejoin="round"/>
<path d="M72.0276 56.5C72.6522 57.9594 73.7203 58.9213 74.9331 58.9213C76.1458 58.9213 77.214 57.9594 77.8386 56.5C78.4632 57.9594 79.5314 58.9213 80.7441 58.9213C81.9569 58.9213 83.025 57.9594 83.6496 56.5" stroke="#C1BEB2" stroke-width="1.61417" stroke-linecap="round" stroke-linejoin="round"/>
<path d="M83.6494 56.5001C84.2741 57.9595 85.3422 58.9214 86.5549 58.9214C87.7677 58.9214 88.8358 57.9595 89.4604 56.5001C90.0851 57.9595 91.1532 58.9214 92.3659 58.9214C93.5787 58.9214 94.6468 57.9595 95.2715 56.5001" stroke="#C1BEB2" stroke-width="1.61417" stroke-linecap="round" stroke-linejoin="round"/>
<path d="M57.5 82.9213C58.7127 82.9213 59.7809 81.9594 60.4055 80.5C61.0302 81.9594 62.0983 82.9213 63.311 82.9213C64.5238 82.9213 65.5919 81.9594 66.2165 80.5C66.8412 81.9594 67.9093 82.9213 69.122 82.9213C70.3348 82.9213 71.4029 81.9594 72.0276 80.5" stroke="#C1BEB2" stroke-width="1.61417" stroke-linecap="round" stroke-linejoin="round"/>
<path d="M72.0276 80.5C72.6522 81.9594 73.7203 82.9213 74.9331 82.9213C76.1458 82.9213 77.214 81.9594 77.8386 80.5C78.4632 81.9594 79.5314 82.9213 80.7441 82.9213C81.9569 82.9213 83.025 81.9594 83.6496 80.5" stroke="#C1BEB2" stroke-width="1.61417" stroke-linecap="round" stroke-linejoin="round"/>
<rect x="32" y="51" width="15" height="15" rx="7.5" fill="#2A78D6"/>
<rect x="32" y="51" width="15" height="15" rx="7.5" stroke="#2A78D6"/>
<path d="M36.1667 58.9167L38.2501 61L43.2501 56" stroke="white" stroke-width="1.25" stroke-linecap="round" stroke-linejoin="round"/>
<rect x="32" y="75" width="15" height="15" rx="7.5" stroke="#1F1E1D" stroke-opacity="0.15"/>
<path d="M37.5324 84.856L39.3564 83.064C39.4284 82.9947 39.4991 82.9253 39.5684 82.856C39.8324 82.5947 40.0244 82.3947 40.1444 82.256C40.2644 82.1173 40.3524 81.9827 40.4084 81.852C40.4644 81.7213 40.4924 81.572 40.4924 81.404C40.4924 81.2093 40.4511 81.036 40.3684 80.884C40.2858 80.732 40.1671 80.6133 40.0124 80.528C39.8604 80.4427 39.6818 80.4 39.4764 80.4C39.2898 80.4 39.1218 80.4387 38.9724 80.516C38.8258 80.5933 38.7071 80.7 38.6164 80.836C38.5284 80.972 38.4751 81.1253 38.4564 81.296H37.6324C37.6671 80.9653 37.7644 80.676 37.9244 80.428C38.0871 80.1773 38.3018 79.984 38.5684 79.848C38.8351 79.712 39.1378 79.644 39.4764 79.644C39.8444 79.644 40.1698 79.7187 40.4524 79.868C40.7351 80.0173 40.9538 80.2253 41.1084 80.492C41.2658 80.7587 41.3444 81.06 41.3444 81.396C41.3444 81.6467 41.3004 81.872 41.2124 82.072C41.1271 82.2693 40.9898 82.4773 40.8004 82.696C40.6111 82.912 40.3204 83.2093 39.9284 83.588L38.5884 84.892L38.5484 84.712H41.4644V85.5H37.5324V84.856Z" fill="#131313"/>
</g>
<rect x="4.25" y="2.25" width="140.5" height="97.5" rx="8.25" stroke="#1E1E1D" stroke-opacity="0.3" stroke-width="0.5" shape-rendering="crispEdges"/>
</g>
<defs>
<filter id="filter0_d_1_4473" x="0" y="0" width="149" height="106" filterUnits="userSpaceOnUse" color-interpolation-filters="sRGB">
<feFlood flood-opacity="0" result="BackgroundImageFix"/>
<feColorMatrix in="SourceAlpha" type="matrix" values="0 0 0 0 0 0 0 0 0 0 0 0 0 0 0 0 0 0 127 0" result="hardAlpha"/>
<feOffset dy="2"/>
<feGaussianBlur stdDeviation="2"/>
<feComposite in2="hardAlpha" operator="out"/>
<feColorMatrix type="matrix" values="0 0 0 0 0 0 0 0 0 0 0 0 0 0 0 0 0 0 0.08 0"/>
<feBlend mode="normal" in2="BackgroundImageFix" result="effect1_dropShadow_1_4473"/>
<feBlend mode="normal" in="SourceGraphic" in2="effect1_dropShadow_1_4473" result="shape"/>
</filter>
<filter id="filter1_d_1_4473" x="13" y="32" width="123" height="91" filterUnits="userSpaceOnUse" color-interpolation-filters="sRGB">
<feFlood flood-opacity="0" result="BackgroundImageFix"/>
<feColorMatrix in="SourceAlpha" type="matrix" values="0 0 0 0 0 0 0 0 0 0 0 0 0 0 0 0 0 0 127 0" result="hardAlpha"/>
<feOffset dy="2"/>
<feGaussianBlur stdDeviation="2"/>
<feComposite in2="hardAlpha" operator="out"/>
<feColorMatrix type="matrix" values="0 0 0 0 0 0 0 0 0 0 0 0 0 0 0 0 0 0 0.08 0"/>
<feBlend mode="normal" in2="BackgroundImageFix" result="effect1_dropShadow_1_4473"/>
<feBlend mode="normal" in="SourceGraphic" in2="effect1_dropShadow_1_4473" result="shape"/>
</filter>
<clipPath id="clip0_1_4473">
<rect x="4.5" y="2.5" width="140" height="97" rx="8" fill="white"/>
</clipPath>
</defs>
</svg>
